<svg id="Calque_1" data-name="Calque 1" xmlns="http://www.w3.org/2000/svg" width="27.60825mm" height="21.3427mm" viewBox="0 0 78.2596 60.499"><title>LPA_logo</title><g id="MRWaSc.tif"><path d="M334.17,452.71l.66.93s-10.33.07-14.66.07c-3.61-6.06-7.12-12.18-10.88-18.14-1.34-2.11-3.53-1.77-5.16.62-1.41,2.05-2.59,4.24-3.86,6.37-2.54,4.3-6.17,6.27-11.36,6.02H268.3c-5.03.32-7.06-.8-8.8-2.31a7.01646,7.01646,0,0,1-1.71-8.4l.02-.03c1.01-1.64,1.88-3.08,2.81-4.74,5.58-9.96,11.13-19.94,16.53-30a4.07146,4.07146,0,0,1,4.31-2.53l9.68-.02-16.75,31.4c-2.38,4.45-2.02,4.89,3.1,4.96,2.67.04,5.33.16,7.99.09a8.56155,8.56155,0,0,0,7.78-4.25c.43-.69.8-1.43,1.21-2.15,4.62-8.15,4.62-8.02,14.28-8.1,3.52-.02,6.18,1.06,8.08,3.92C322.64,435.16,328.39,443.94,334.17,452.71Z" transform="translate(-256.8204 -393.461)" style="fill:#20783c"/><path d="M274.39,431.95c-2.38,4.45-2.02,4.89,3.1,4.96,2.67.04,5.33.16,7.99.09a8.56155,8.56155,0,0,0,7.78-4.25c.43-.69.8-1.43,1.21-2.15,4.62-8.15,4.62-8.02,14.28-8.1,3.52-.02,6.18,1.06,8.08,3.92,5.81,8.74,11.56,17.52,17.34,26.29l.66.93s-10.33.07-14.66.07c-3.61-6.06-7.12-12.18-10.88-18.14-1.34-2.11-3.53-1.77-5.16.62-1.41,2.05-2.59,4.24-3.86,6.37-2.54,4.3-6.17,6.27-11.36,6.02H268.3c-5.03.32-7.06-.8-8.8-2.31a7.01646,7.01646,0,0,1-1.71-8.4l.02-.03c1.01-1.64,1.88-3.08,2.81-4.74,5.58-9.96,11.13-19.94,16.53-30a4.07146,4.07146,0,0,1,4.31-2.53l9.68-.02Z" transform="translate(-256.8204 -393.461)" style="fill:none;stroke:#20783c;stroke-linecap:round;stroke-linejoin:round;stroke-width:0.5px"/><path d="M311.44847,393.711c4.76637,0,5.91405.82217,6.78281,1.65844,1.50495,1.44869,2.93739,6.06339,2.00106,11.49709-1.02051,5.92219-6.41221,11.31366-11.96364,11.68709a18.41425,18.41425,0,0,1-3.94466-.31325,1.37322,1.37322,0,0,1-1.06369-1.88666c.453-1.086.90872-2.17067,1.41816-3.22951.64794-1.3467,1.5637-2.57482,2.11489-3.95377q.02408-.0602.04418-.122a1.37014,1.37014,0,0,0-2.17107-1.47571,1.20262,1.20262,0,0,0-.173.20322c-2.11109,3.15567-4.07527,6.4139-5.99471,9.69244-2.50965,4.28664-4.84791,8.67506-7.41389,12.92677-1.73835,2.88038-8.85024,4.60887-11.60535,2.89121-2.00138-1.24776-1.02528-2.87372-.214-4.34346,2.79382-5.06139,5.56481-10.13662,8.44521-15.14869,3.733-6.49565,7.55358-12.941,11.34079-19.40548a1.37008,1.37008,0,0,1,1.18229-.67774Z" transform="translate(-256.8204 -393.461)" style="fill:#20783c;stroke:#20783c;stroke-linecap:round;stroke-linejoin:round;stroke-width:0.5px"/></g></svg>